<?xml version="1.0" encoding="utf-8"?>
<!-- Generator: Adobe Illustrator 25.4.1, SVG Export Plug-In . SVG Version: 6.00 Build 0)  -->
<svg version="1.1" id="Layer_1" xmlns="http://www.w3.org/2000/svg" xmlns:xlink="http://www.w3.org/1999/xlink" x="0px" y="0px"
	 viewBox="0 0 100 100" style="enable-background:new 0 0 100 100;" xml:space="preserve">
<style type="text/css">
	.st0{fill:#FFAA00;}
	.st1{fill:#B3B3B3;}
</style>
<g>
	<path class="st0" d="M42.5,69.1c3-8,10.7-13.3,19.3-13.3c3.3,0,6.4,0.8,9.2,2.1c1.5-3.6,2.3-7.6,2.3-11.8
		C73.3,28.9,59.4,15,42.2,15C25,15,11,28.9,11,46.1c0,14.1,9.4,26,22.3,29.8C35.3,72.5,38.6,70,42.5,69.1z"/>
	<path class="st0" d="M48.5,12.5C48.5,12.5,48.5,12.5,48.5,12.5c-2.1-0.4-4.3-0.6-6.4-0.6c-1.9,0-3.9,0.2-5.8,0.5c0,0,0,0-0.1,0
		c-0.1,0-0.2-0.1-0.3-0.1c-0.1-0.1-0.1-0.3,0-0.4l4.1-7c0.6-1.1,1.4-1.7,2.3-1.7s1.7,0.6,2.3,1.7l4.1,7.1c0.1,0.1,0.1,0.3,0,0.4
		C48.7,12.5,48.6,12.5,48.5,12.5z"/>
	<path class="st0" d="M15.9,24.2C15.8,24.2,15.8,24.2,15.9,24.2c-0.2,0-0.3-0.2-0.3-0.3l-1.4-8c-0.2-1,0-1.9,0.5-2.5
		c0.4-0.5,1-0.7,1.7-0.7c0.4,0,0.9,0.1,1.4,0.3l7.7,2.8c0.1,0,0.2,0.2,0.2,0.3c0,0.1-0.1,0.3-0.2,0.3c-3.5,2-6.7,4.6-9.3,7.7
		C16,24.1,15.9,24.2,15.9,24.2z"/>
	<path class="st0" d="M7.7,46.3c-0.1,0-0.2,0-0.2-0.1L1.3,41c-0.9-0.8-1.4-1.7-1.2-2.6c0.2-0.9,0.9-1.6,2-2l7.7-2.8c0,0,0.1,0,0.1,0
		c0.1,0,0.2,0,0.2,0.1c0.1,0.1,0.1,0.2,0.1,0.4C8.8,37.9,8.1,41.9,8,45.9c0,0.1-0.1,0.3-0.2,0.3C7.8,46.3,7.7,46.3,7.7,46.3z"/>
	<path class="st0" d="M7.6,68.5c-1.2,0-2.2-0.4-2.6-1.2c-0.4-0.8-0.3-1.8,0.3-2.8l4.1-7.1c0.1-0.1,0.2-0.2,0.3-0.2c0,0,0,0,0,0
		c0.1,0,0.2,0.1,0.3,0.2c1.3,3.8,3.4,7.4,6,10.5c0.1,0.1,0.1,0.2,0,0.4c-0.1,0.1-0.2,0.2-0.3,0.2L7.6,68.5z"/>
	<path class="st0" d="M28,86.4c-1.2,0-2-0.9-2.3-2.5l-1.4-8.1c0-0.1,0-0.3,0.1-0.3c0.1,0,0.1-0.1,0.2-0.1c0.1,0,0.1,0,0.2,0
		c2.2,1.3,4.5,2.4,6.9,3.1c0.2,0.1,0.3,0.2,0.2,0.4c-0.4,1.3-0.7,2.5-0.7,4c0,0.3,0.1,0.7,0.1,1.1l0,0.1c0,0.1,0,0.2-0.1,0.3
		L30,85.5C29.4,86.1,28.6,86.4,28,86.4z"/>
	<path class="st0" d="M76.4,61.6c-0.1,0-0.2,0-0.2-0.1c-0.7-0.7-1.5-1.3-2.3-1.9c-0.1-0.1-0.2-0.3-0.1-0.4c0.2-0.4,0.3-0.8,0.5-1.3
		c0-0.1,0.2-0.2,0.3-0.2c0,0,0,0,0,0c0.1,0,0.2,0.1,0.3,0.2l1.9,3.2c0.1,0.1,0,0.3-0.1,0.4C76.5,61.6,76.4,61.6,76.4,61.6z"/>
	<path class="st0" d="M76.6,46.8c0,0-0.1,0-0.1,0c-0.1-0.1-0.2-0.2-0.2-0.3c0-0.1,0-0.3,0-0.4c0-4-0.7-7.8-2-11.5
		c0-0.1,0-0.3,0.1-0.4c0.1-0.1,0.2-0.1,0.2-0.1c0,0,0.1,0,0.1,0l7.6,2.8c1.2,0.4,1.9,1.1,2,2c0.2,0.9-0.3,1.8-1.2,2.6l-6.3,5.3
		C76.8,46.8,76.7,46.8,76.6,46.8z"/>
	<path class="st0" d="M68.8,24.6c-0.1,0-0.2,0-0.3-0.1c-2.6-3.2-5.7-5.8-9.2-7.8c-0.1-0.1-0.2-0.2-0.2-0.3c0-0.1,0.1-0.2,0.2-0.3
		l7.6-2.8c0.5-0.2,0.9-0.3,1.4-0.3c0.7,0,1.3,0.3,1.7,0.7c0.5,0.6,0.7,1.5,0.5,2.5l-1.4,8.1C69.1,24.4,69,24.5,68.8,24.6
		C68.9,24.6,68.8,24.6,68.8,24.6z"/>
	<path class="st1" d="M100,90.1c-0.1-2.8-2.5-5-5.3-5c-0.1,0-0.3,0-0.4,0c-1.7,0.1-3.2,1-4.1,2.5c-0.3,0.5-1,0.7-1.5,0.4
		c-0.3-0.2-0.5-0.6-0.5-0.9c0-0.2,0.1-0.4,0.2-0.6c1.3-2.2,3.6-3.5,6.1-3.6c-0.2-7.1-5.9-12.8-13-13.1c0.4,1.3,0.7,2.6,0.9,4
		c0.1,0.6-0.4,1.2-1,1.2c0,0,0,0,0,0c0,0-0.1,0-0.1,0c-0.6,0-1-0.4-1.1-1c-0.2-1.5-0.5-2.9-1-4.2c-0.2-0.5-0.4-1-0.6-1.5
		c-1.3-2.8-3.3-5.2-5.8-6.9c-0.8-0.6-1.7-1.1-2.6-1.6c-2.5-1.2-5.3-1.9-8.2-1.9c-7.3,0-13.8,4.2-16.7,10.7c0.3,0,0.5,0,0.8,0
		c2.9,0,5.7,0.9,8.2,2.5c0.3,0.2,0.5,0.6,0.5,0.9c0,0.2-0.1,0.4-0.2,0.6c-0.3,0.5-1,0.6-1.5,0.3c-2-1.4-4.4-2.1-6.9-2.1
		c-0.7,0-1.4,0.1-2.1,0.2c-0.2,0.1-0.4,0.1-0.6,0.1c-0.1,0-0.2,0-0.2,0.1c-3.1,0.8-5.7,2.7-7.4,5.3c-0.6,0.9-1,1.8-1.3,2.8
		c-0.4,1-0.6,2.1-0.6,3.3c0,0.2,0,0.5,0,0.7c0,0,0,0,0,0c0,7.4,6,13.5,13.5,13.5H81h12.7c3.5,0,6.4-2.9,6.4-6.4
		C100,90.3,100,90.2,100,90.1z"/>
</g>
</svg>
